<svg xmlns="http://www.w3.org/2000/svg" xmlns:xlink="http://www.w3.org/1999/xlink" viewBox="0 0 1674.31 1674.31"><defs><style>.cls-1{isolation:isolate;}.cls-2{fill:url(#linear-gradient);}.cls-3{fill:url(#linear-gradient-2);}.cls-4{fill:url(#linear-gradient-3);}.cls-5,.cls-6{fill:none;stroke:#f7cf9c;stroke-linecap:round;stroke-miterlimit:10;stroke-width:48px;}.cls-5{opacity:0.53;}.cls-6{opacity:0.37;}.cls-10,.cls-7,.cls-8,.cls-9{mix-blend-mode:soft-light;fill:#fff;font-family:MetroUberFont-Regular, Metro Uber Font;}.cls-7{font-size:461.13px;}.cls-10,.cls-8,.cls-9{font-size:198.95px;}.cls-9{opacity:0.34;}.cls-10{opacity:0.6;}</style><linearGradient id="linear-gradient" x1="206.09" y1="1700.6" x2="1043.26" y2="250.58" gradientTransform="translate(431.74 -248.03) rotate(12.15)" gradientUnits="userSpaceOnUse"><stop offset="0" stop-color="#fdbb4d"/><stop offset="1" stop-color="#ffcd73"/></linearGradient><linearGradient id="linear-gradient-2" x1="3.44" y1="1415.57" x2="1023.53" y2="693.12" gradientTransform="translate(431.74 -248.03) rotate(12.15)" gradientUnits="userSpaceOnUse"><stop offset="0" stop-color="#fda237"/><stop offset="1" stop-color="#ffcd73"/></linearGradient><linearGradient id="linear-gradient-3" x1="832.92" y1="1332.74" x2="-73.33" y2="-221.51" gradientTransform="translate(431.74 -248.03) rotate(12.15)" gradientUnits="userSpaceOnUse"><stop offset="0" stop-color="#fcd378"/><stop offset="1" stop-color="#fc9"/></linearGradient></defs><g class="cls-1"><g id="Layer_2" data-name="Layer 2"><g id="Layer_1-2" data-name="Layer 1"><circle class="cls-2" cx="837.16" cy="837.16" r="837.1"/><circle class="cls-3" cx="837.16" cy="837.16" r="624.9"/><circle class="cls-4" cx="837.16" cy="837.16" r="498.1"/><path class="cls-5" d="M803.72,94.84S80.94,150.2,109.21,881.77"/><path class="cls-5" d="M871.94,1609.9s338.83.69,583.37-347"/><path class="cls-6" d="M1506.17,1175.39s28.95-45.25,36.86-82"/><text class="cls-7" transform="matrix(0.84, -0.54, 0.54, 0.84, 661.24, 899.58)">M</text><text class="cls-7" transform="matrix(-0.84, 0.54, -0.54, -0.84, 1013.08, 774.73)">M</text><text class="cls-8" transform="matrix(0.54, 0.84, -0.84, 0.54, 972.12, 656.76)">M</text><text class="cls-9" transform="matrix(0.54, 0.84, -0.84, 0.54, 1335.34, 372.67)">M</text><text class="cls-9" transform="matrix(-0.84, 0.54, -0.54, -0.84, 1272.82, 1335.33)">M</text><text class="cls-9" transform="matrix(0.84, -0.54, 0.54, 0.84, 441.27, 321.86)">M</text><text class="cls-8" transform="matrix(-0.54, -0.84, 0.84, -0.54, 678.37, 1019.31)">M</text><text class="cls-10" transform="matrix(-0.54, -0.84, 0.84, -0.54, 310.75, 1228.29)">M</text></g></g></g></svg>